<mxfile host="app.diagrams.net" modified="2024-05-10T15:25:12.271Z" agent="Mozilla/5.0 (X11; Linux x86_64) AppleWebKit/537.36 (KHTML, like Gecko) Chrome/124.0.0.0 Safari/537.36" version="24.3.1" etag="hl_PNb7_biE4N2Jlzkco" type="github">
  <diagram name="Page-1" id="r3qiMdI-mU2f76HBkmt6">
    <mxGraphModel>
      <root>
        <mxCell id="0" />
        <mxCell id="1" parent="0" />
      </root>
    </mxGraphModel>
  </diagram>
</mxfile>
